<?xml version="1.0" encoding="utf-8"?>
<!-- Generator: Adobe Illustrator 16.0.0, SVG Export Plug-In . SVG Version: 6.00 Build 0)  -->
<!DOCTYPE svg PUBLIC "-//W3C//DTD SVG 1.1//EN" "http://www.w3.org/Graphics/SVG/1.1/DTD/svg11.dtd">
<svg version="1.1" id="Capa_1" xmlns="http://www.w3.org/2000/svg" xmlns:xlink="http://www.w3.org/1999/xlink" x="0px" y="0px"
	 width="437px" height="168px" viewBox="0 0 437 168" enable-background="new 0 0 437 168" xml:space="preserve">
<g enable-background="new    ">
	<path fill="#363636" d="M1.695,44.68h65.28c3.199,0,6.139,0.801,8.82,2.4c2.679,1.602,4.839,3.74,6.48,6.42
		c1.639,2.682,2.46,5.661,2.46,8.94v16.199c0,1.041-0.06,2.021-0.18,2.94c-0.12,0.921-0.341,1.781-0.66,2.58
		c1.2,1.521,2.2,3.28,3,5.28c0.799,2,1.2,4,1.2,6v17.88c0,3.2-0.821,6.161-2.46,8.88c-1.641,2.721-3.801,4.881-6.48,6.479
		c-2.681,1.603-5.661,2.4-8.94,2.4H1.695V44.68z M65.895,77.8V63.4h-45.6v14.399h45.6V77.8z M69.255,112.359V96.52h-48.96v15.84
		H69.255z"/>
	<path fill="#363636" d="M100.694,57.16V38.68h18.36v18.48H100.694z M100.694,131.08v-69.6h18.36v69.6H100.694z"/>
	<path fill="#363636" d="M139.451,128.68c-2.64-1.599-4.761-3.72-6.36-6.358c-1.601-2.642-2.4-5.521-2.4-8.642V40.84h18.36v20.64
		h25.8v18.359h-25.8v32.88h25.8v18.361h-26.64C145.01,131.08,142.091,130.281,139.451,128.68z"/>
	<path fill="#363636" d="M185.289,131.08V44.56h18.6v67.799h67.8v18.721H185.289z"/>
	<path fill="#363636" d="M295.568,131.08c-3.2,0-6.12-0.799-8.76-2.4c-2.641-1.599-4.74-3.72-6.301-6.358
		c-1.561-2.642-2.34-5.521-2.34-8.642V87.04h52.2v-7.2h-52.2V61.48h53.16c3.198,0,6.119,0.8,8.76,2.399
		c2.641,1.602,4.74,3.72,6.301,6.36c1.56,2.64,2.34,5.52,2.34,8.64v52.201H295.568z M330.369,112.721v-9.601h-33.841v9.601H330.369z
		"/>
	<path fill="#363636" d="M358.208,131.08v-92.4h18.359v22.8h34.8c3.199,0,6.12,0.8,8.761,2.399c2.641,1.602,4.739,3.72,6.3,6.36
		c1.561,2.64,2.341,5.52,2.341,8.64v34.801c0,3.119-0.78,6-2.341,8.641c-1.561,2.64-3.659,4.761-6.3,6.359
		c-2.641,1.602-5.562,2.399-8.761,2.399L358.208,131.08L358.208,131.08z M410.407,112.721V79.84h-33.84v32.881H410.407z"/>
</g>
</svg>
